<?xml version="1.0" encoding="UTF-8" standalone="no"?>
<!-- Created with Inkscape (http://www.inkscape.org/) -->

<svg
   width="17.062391mm"
   height="16.904951mm"
   viewBox="0 0 17.062391 16.904951"
   version="1.1"
   id="svg1"
   xml:space="preserve"
   xmlns="http://www.w3.org/2000/svg"
   xmlns:svg="http://www.w3.org/2000/svg"><defs
     id="defs1" /><g
     id="layer2"
     style="opacity:1"
     transform="translate(-51.832401,-90.986578)"><path
       id="path5"
       style="display:inline;stroke-width:0.0403999"
       d="m 59.948035,90.986601 c -1.552878,0.01364 -3.387751,0.49488 -4.416691,1.794185 -0.75956,1.009242 -0.991567,2.766123 -1.020724,3.007245 l 1.555762,-0.0058 c 0.02311,-0.251162 0.175822,-1.684523 0.75288,-2.180516 1.194465,-1.026667 5.353713,-0.929713 6.339001,-0.07421 0.566595,0.491962 0.660751,1.943606 0.674758,2.236175 0.5677,0.0038 1.091685,0.01139 1.552139,0.02223 -0.02982,-0.246054 -0.262092,-1.997614 -1.020362,-3.005141 -1.02894,-1.299311 -2.863885,-1.780552 -4.416763,-1.794191 z m 1.315528,4.700188 c -0.684297,0.0026 -1.14327,0.0064 -1.14327,0.0064 l -3.979703,0.01485 -1.555762,0.0058 -0.20371,7.43e-4 -0.07414,0.0019 c -0.719399,0.02932 -1.320885,0.551032 -1.442349,1.250956 l -0.01138,0.07334 -0.985722,6.648732 -0.01065,0.0734 c -0.218996,1.62681 1.059321,3.07613 2.723237,3.08732 l 0.07421,-2.9e-4 c 2.71012,-0.0272 4.168298,-0.0179 4.833967,-0.012 a 5.8489846,5.8489846 0 0 1 -1.470685,-3.85201 5.8489846,5.8489846 0 0 1 5.848966,-5.848966 5.8489846,5.8489846 0 0 1 3.328352,1.041159 l -0.168635,-1.137398 -0.0113,-0.07334 c -0.121466,-0.699927 -0.723019,-1.22157 -1.442421,-1.250888 l -0.07421,-0.0019 c -0.05313,-0.0015 -0.131562,-0.0015 -0.187404,-0.003 -0.460455,-0.01084 -0.98444,-0.01841 -1.55214,-0.02223 -0.901297,-0.0061 -1.810953,-0.0051 -2.495249,-0.0026 z" /><path
       d="m 64.044442,98.190315 a 4.8506808,4.8506808 0 0 0 -4.850867,4.850865 4.8506808,4.8506808 0 0 0 4.850867,4.85035 4.8506808,4.8506808 0 0 0 4.85035,-4.85035 4.8506808,4.8506808 0 0 0 -4.85035,-4.850865 z m 2.124418,1.865515 c 0.244992,0 0.49027,0.0939 0.677995,0.28164 0.375457,0.37545 0.375451,0.98002 0,1.35547 l -1.384412,1.38441 1.399398,1.3994 c 0.37545,0.37545 0.375452,0.98003 0,1.35548 -0.375452,0.37546 -0.980024,0.37545 -1.355473,0 l -1.399397,-1.3994 -1.377694,1.37769 c -0.375452,0.37545 -0.980017,0.37494 -1.355473,-5.2e-4 -0.375451,-0.37544 -0.375451,-0.9795 0,-1.35495 l 1.377694,-1.3777 -1.362191,-1.36219 c -0.37545,-0.37545 -0.375452,-0.98003 0,-1.35547 0.375452,-0.375465 0.980024,-0.375455 1.355473,0 l 1.362191,1.36219 1.384411,-1.38441 c 0.187726,-0.18773 0.432486,-0.28164 0.677478,-0.28164 z"
       style="stroke-width:0.284838"
       id="path8" /></g></svg>
