<?xml version="1.0" encoding="UTF-8" standalone="no"?>
<!-- Created with Inkscape (http://www.inkscape.org/) -->

<svg
   width="16.98764mm"
   height="16.839552mm"
   viewBox="0 0 16.98764 16.839552"
   version="1.1"
   id="svg1"
   xml:space="preserve"
   xmlns="http://www.w3.org/2000/svg"
   xmlns:svg="http://www.w3.org/2000/svg"><defs
     id="defs1" /><g
     id="layer2"
     style="opacity:1"
     transform="translate(-51.832401,-90.986578)"><path
       id="path5"
       style="display:inline;stroke-width:0.0403999"
       d="m 59.948035,90.986601 c -1.552878,0.01364 -3.387751,0.49488 -4.416691,1.794185 -0.75956,1.009242 -0.991567,2.766123 -1.020724,3.007245 l 1.555762,-0.0058 c 0.02311,-0.251162 0.175822,-1.684523 0.75288,-2.180516 1.194465,-1.026667 5.353713,-0.929713 6.339001,-0.07421 0.566595,0.491962 0.660751,1.943606 0.674758,2.236175 0.5677,0.0038 1.091685,0.01139 1.552139,0.02223 -0.02982,-0.246054 -0.262092,-1.997614 -1.020362,-3.005141 -1.02894,-1.299311 -2.863885,-1.780552 -4.416763,-1.794191 z m 1.315528,4.700188 c -0.684297,0.0026 -1.14327,0.0064 -1.14327,0.0064 l -3.979703,0.01485 -1.555762,0.0058 -0.20371,7.43e-4 -0.07414,0.0019 c -0.719399,0.02932 -1.320885,0.551032 -1.442349,1.250956 l -0.01138,0.07334 -0.985722,6.648732 -0.01065,0.0734 c -0.218996,1.62681 1.059321,3.07613 2.723237,3.08732 l 0.07421,-2.9e-4 c 2.71012,-0.0272 4.168298,-0.0179 4.833967,-0.012 a 5.8489846,5.8489846 0 0 1 -1.470685,-3.85201 5.8489846,5.8489846 0 0 1 5.848966,-5.848966 5.8489846,5.8489846 0 0 1 3.328352,1.041159 l -0.168635,-1.137398 -0.0113,-0.07334 c -0.121466,-0.699927 -0.723019,-1.22157 -1.442421,-1.250888 l -0.07421,-0.0019 c -0.05313,-0.0015 -0.131562,-0.0015 -0.187404,-0.003 -0.460455,-0.01084 -0.98444,-0.01841 -1.55214,-0.02223 -0.901297,-0.0061 -1.810953,-0.0051 -2.495249,-0.0026 z" /><path
       d="m 64.031367,98.248857 a 4.7886425,4.7886425 0 0 1 4.788674,4.788603 4.7886425,4.7886425 0 0 1 -4.788674,4.78867 4.7886425,4.7886425 0 0 1 -4.7886,-4.78867 4.7886425,4.7886425 0 0 1 4.7886,-4.788603 z m 0.605767,1.892233 a 0.29665853,0.48579145 0 0 0 -0.313934,0.48496 v 0.74049 h -2.955138 c -0.340663,0 -0.614898,0.27424 -0.614898,0.6149 v 2.259 c 0,0.34067 0.274235,0.61497 0.614898,0.61497 H 64.3232 v 0.58041 a 0.29665853,0.48579145 0 0 0 0.445031,0.42068 l 2.543659,-2.40481 a 0.29665853,0.48579145 0 0 0 0,-0.84144 l -2.543659,-2.40488 a 0.29665853,0.48579145 0 0 0 -0.131097,-0.0643 z"
       style="stroke-width:0.0303776"
       id="path6" /></g></svg>
